<svg xmlns="http://www.w3.org/2000/svg" viewBox="8209.65 452.666 220 150"><defs><style>.a,.e{fill:none;}.a,.b,.c{stroke:#000;}.b{fill:#fff;}.d{stroke:none;}</style></defs><g transform="translate(7294)"><g class="a" transform="translate(915.65 452.666)"><rect class="d" width="220" height="150"/><rect class="e" x="0.5" y="0.5" width="219" height="149"/></g><g class="b" transform="translate(981.626 474.29)"><circle class="d" cx="14.867" cy="14.867" r="14.867"/><circle class="e" cx="14.867" cy="14.867" r="14.367"/></g><g class="b" transform="translate(975.22 526.648)"><circle class="d" cx="14.867" cy="14.867" r="14.867"/><circle class="e" cx="14.867" cy="14.867" r="14.367"/></g><g class="b" transform="translate(1010.008 560.437)"><circle class="d" cx="14.867" cy="14.867" r="14.867"/><circle class="e" cx="14.867" cy="14.867" r="14.367"/></g><g class="b" transform="translate(1042.445 525.648)"><circle class="d" cx="14.867" cy="14.867" r="14.867"/><circle class="e" cx="14.867" cy="14.867" r="14.367"/></g><g class="b" transform="translate(1047.851 472.939)"><circle class="d" cx="14.867" cy="14.867" r="14.867"/><circle class="e" cx="14.867" cy="14.867" r="14.367"/></g><path class="a" d="M4269.959,8486.06l-38.941,28.279" transform="translate(-3217.775 -7988.713)"/><path class="c" d="M7.239,0l4.718,7.652L0,9.742Z" transform="translate(1052.223 518.317) rotate(-51)"/><path class="c" d="M7.239,0l4.718,7.652L0,9.742Z" transform="translate(1033.792 553.456) rotate(-14)"/><path class="c" d="M7.239,0l4.718,7.652L0,9.742Z" transform="translate(1002.862 567.878) rotate(-107)"/><path class="c" d="M7.239,0l4.718,7.652L0,9.742Z" transform="matrix(0.574, -0.819, 0.819, 0.574, 986.352, 518.84)"/><path class="c" d="M7.239,0l4.718,7.652L0,9.742Z" transform="translate(1003.105 522.861) rotate(-9)"/><path class="a" d="M4274.466,8500.068l1.27-11.068Z" transform="translate(-3213.576 -7986.504)"/><path class="a" d="M4252.842,8528.475l3.889-4.235" transform="translate(-3209.078 -7973.246)"/><path class="a" d="M4218.947,8500.351l.718-9.63" transform="translate(-3223.877 -7987.21)"/><path class="a" d="M4223.765,8495.774l-5.07-5.062" transform="translate(-3219.581 -7937.962)"/></g></svg>