<svg xmlns="http://www.w3.org/2000/svg" viewBox="8093.65 826 222.491 157.933"><defs><style>.a,.c,.g{fill:none;}.a,.b,.c,.d{stroke:#000;}.a{stroke-width:0.5px;}.b{fill:#fff;}.e{font-size:9px;font-family:OpenSans, Open Sans;}.f{stroke:none;}</style></defs><g transform="translate(7252 400.772)"><g class="a" transform="translate(948.518 452.666)"><rect class="f" width="98.426" height="87.495"/><rect class="g" x="0.25" y="0.25" width="97.926" height="86.995"/></g><g class="a" transform="translate(841.65 452.666)"><rect class="f" width="98.162" height="34.495"/><rect class="g" x="0.25" y="0.25" width="97.662" height="33.995"/></g><g class="a" transform="translate(841.65 495.666)"><rect class="f" width="98.162" height="87.495"/><rect class="g" x="0.25" y="0.25" width="97.662" height="86.995"/></g><g class="a" transform="translate(948.518 550.666)"><rect class="f" width="98.426" height="32.495"/><rect class="g" x="0.25" y="0.25" width="97.926" height="31.995"/></g><g class="b" transform="translate(964.052 470.279)"><circle class="f" cx="8.672" cy="8.672" r="8.672"/><circle class="g" cx="8.672" cy="8.672" r="8.172"/></g><g class="b" transform="translate(873.052 456.279)"><circle class="f" cx="8.672" cy="8.672" r="8.672"/><circle class="g" cx="8.672" cy="8.672" r="8.172"/></g><g class="b" transform="translate(897.052 467.279)"><circle class="f" cx="8.672" cy="8.672" r="8.672"/><circle class="g" cx="8.672" cy="8.672" r="8.172"/></g><g class="b" transform="translate(894.052 513.279)"><circle class="f" cx="8.672" cy="8.672" r="8.672"/><circle class="g" cx="8.672" cy="8.672" r="8.172"/></g><g class="b" transform="translate(862.052 508.279)"><circle class="f" cx="8.672" cy="8.672" r="8.672"/><circle class="g" cx="8.672" cy="8.672" r="8.172"/></g><g class="b" transform="translate(855.052 536.279)"><circle class="f" cx="8.672" cy="8.672" r="8.672"/><circle class="g" cx="8.672" cy="8.672" r="8.172"/></g><g class="b" transform="translate(880.052 548.279)"><circle class="f" cx="8.672" cy="8.672" r="8.672"/><circle class="g" cx="8.672" cy="8.672" r="8.172"/></g><g class="b" transform="translate(908.052 536.279)"><circle class="f" cx="8.672" cy="8.672" r="8.672"/><circle class="g" cx="8.672" cy="8.672" r="8.172"/></g><g class="b" transform="translate(958.315 503.82)"><circle class="f" cx="8.672" cy="8.672" r="8.672"/><circle class="g" cx="8.672" cy="8.672" r="8.172"/></g><g class="b" transform="translate(988.607 515.528)"><circle class="f" cx="8.672" cy="8.672" r="8.672"/><circle class="g" cx="8.672" cy="8.672" r="8.172"/></g><g class="b" transform="translate(1004.607 563.528)"><circle class="f" cx="8.672" cy="8.672" r="8.672"/><circle class="g" cx="8.672" cy="8.672" r="8.172"/></g><g class="b" transform="translate(979.607 554.528)"><circle class="f" cx="8.672" cy="8.672" r="8.672"/><circle class="g" cx="8.672" cy="8.672" r="8.172"/></g><g class="b" transform="translate(1007.527 495.236)"><circle class="f" cx="8.672" cy="8.672" r="8.672"/><circle class="g" cx="8.672" cy="8.672" r="8.172"/></g><g class="b" transform="translate(1012.681 466.491)"><circle class="f" cx="8.672" cy="8.672" r="8.672"/><circle class="g" cx="8.672" cy="8.672" r="8.172"/></g><path class="c" d="M4235.657,8479.161l-5.664,28.6" transform="translate(-3356.524 -8006.332)"/><path class="c" d="M4231.415,8485.387l-1.422,22.377" transform="translate(-3326.524 -8001.332)"/><path class="c" d="M4224.7,8477.9,4239,8505.2" transform="translate(-3254.524 -7957.332)"/><path class="c" d="M4230.013,8479.907,4239,8505.2" transform="translate(-3231.524 -7947.332)"/><path class="d" d="M4.223,0,6.975,4.464,0,5.682Z" transform="translate(1013.231 490.96) rotate(-51)"/><path class="d" d="M4.223,0,6.975,4.464,0,5.682Z" transform="translate(868.231 502.96) rotate(-51)"/><path class="d" d="M4.223,0,6.975,4.464,0,5.682Z" transform="matrix(0.883, -0.469, 0.469, 0.883, 898.221, 451.166)"/><path class="d" d="M4.223,0,6.975,4.464,0,5.682Z" transform="matrix(0.574, -0.819, 0.819, 0.574, 898.306, 508.265)"/><path class="d" d="M4.223,0,6.975,4.464,0,5.682Z" transform="translate(1002.48 511.457) rotate(-14)"/><path class="d" d="M4.223,0,6.975,4.464,0,5.682Z" transform="translate(982.419 524.144) rotate(-120)"/><path class="d" d="M4.223,0,6.975,4.464,0,5.682Z" transform="translate(962.691 498.728) rotate(-48)"/><path class="d" d="M4.223,0,6.975,4.464,0,5.682Z" transform="matrix(0.358, -0.934, 0.934, 0.358, 980.234, 551.275)"/><path class="d" d="M4.223,0,6.975,4.464,0,5.682Z" transform="translate(1003.584 561.797) rotate(-77)"/><path class="d" d="M4.223,0,6.975,4.464,0,5.682Z" transform="matrix(0.988, -0.156, 0.156, 0.988, 1034.248, 561.778)"/><path class="d" d="M4.223,0,6.975,4.464,0,5.682Z" transform="translate(974.58 500.61) rotate(-9)"/><path class="c" d="M4274.466,8495.455l.858-5.056Z" transform="translate(-3256.18 -8007.269)"/><path class="c" d="M4252.842,8526.709l2.268-2.47" transform="translate(-3244.545 -8014.22)"/><path class="c" d="M4218.059,8496.468l2.18-9.053" transform="translate(-3250.054 -8000.397)"/><path class="c" d="M4208.793,8503.329l33.11-23.309" transform="translate(-3228.054 -8001.397)"/><path class="c" d="M4221.652,8493.665l-5.959-3.5" transform="translate(-3240.442 -7975.667)"/><text class="e" transform="translate(973 464.228)"><tspan x="0" y="0">Framework</tspan></text><text class="e" transform="translate(869 578.228)"><tspan x="0" y="0">Biblioteca</tspan></text><text class="e" transform="translate(994 435.228)"><tspan x="-40.208" y="0">Código escrito pelo</tspan><tspan x="-30.918" y="13">desenvolvedor</tspan></text><path class="c" d="M949.29,436.726c-19.569,0-36.438-.623-45.611,14.591"/><path class="c" d="M4214.894,8873.741c17.92,7.142,27.747,25.519,27.747,61.714s-9.492,47.217-24.222,61.946" transform="translate(-3179 -8433.772)"/></g></svg>